<mxfile host="app.diagrams.net" modified="2022-10-26T06:14:41.723Z" agent="5.0 (Windows NT 6.1; Win64; x64) AppleWebKit/537.36 (KHTML, like Gecko) Chrome/106.0.0.0 Safari/537.36" etag="uKJYcXYvrT5DdD54-mOT" version="20.5.1" type="github">
  <diagram name="Page-1" id="efa7a0a1-bf9b-a30e-e6df-94a7791c09e9">
    <mxGraphModel dx="852" dy="346" grid="1" gridSize="10" guides="1" tooltips="1" connect="1" arrows="1" fold="1" page="1" pageScale="1" pageWidth="826" pageHeight="1169" background="none" math="0" shadow="0">
      <root>
        <mxCell id="0" />
        <mxCell id="1" parent="0" />
        <mxCell id="qrH3l1kH9dTRS8EX3X_p-262" value="" style="rounded=0;whiteSpace=wrap;html=1;" vertex="1" parent="1">
          <mxGeometry x="564.75" y="100" width="125.25" height="450" as="geometry" />
        </mxCell>
        <mxCell id="qrH3l1kH9dTRS8EX3X_p-202" value="" style="rounded=0;whiteSpace=wrap;html=1;" vertex="1" parent="1">
          <mxGeometry x="80.5" y="150" width="472.5" height="150" as="geometry" />
        </mxCell>
        <mxCell id="qrH3l1kH9dTRS8EX3X_p-188" value="API网关" style="rounded=0;whiteSpace=wrap;html=1;" vertex="1" parent="1">
          <mxGeometry x="81" y="100" width="470" height="40" as="geometry" />
        </mxCell>
        <mxCell id="qrH3l1kH9dTRS8EX3X_p-185" value="" style="rounded=0;whiteSpace=wrap;html=1;" vertex="1" parent="1">
          <mxGeometry x="80" y="10" width="610" height="80" as="geometry" />
        </mxCell>
        <mxCell id="qrH3l1kH9dTRS8EX3X_p-182" value="运营视图" style="rounded=1;whiteSpace=wrap;html=1;" vertex="1" parent="1">
          <mxGeometry x="110" y="40" width="120" height="30" as="geometry" />
        </mxCell>
        <mxCell id="qrH3l1kH9dTRS8EX3X_p-183" value="租户视图" style="rounded=1;whiteSpace=wrap;html=1;" vertex="1" parent="1">
          <mxGeometry x="318.25" y="35" width="120" height="30" as="geometry" />
        </mxCell>
        <mxCell id="qrH3l1kH9dTRS8EX3X_p-184" value="合作伙伴视图" style="rounded=1;whiteSpace=wrap;html=1;" vertex="1" parent="1">
          <mxGeometry x="520" y="35" width="120" height="30" as="geometry" />
        </mxCell>
        <mxCell id="qrH3l1kH9dTRS8EX3X_p-186" value="视图层" style="text;html=1;strokeColor=none;fillColor=none;align=center;verticalAlign=middle;whiteSpace=wrap;rounded=0;" vertex="1" parent="1">
          <mxGeometry x="286.75" y="10" width="60" height="30" as="geometry" />
        </mxCell>
        <mxCell id="qrH3l1kH9dTRS8EX3X_p-189" value="合同管理服务" style="rounded=1;whiteSpace=wrap;html=1;" vertex="1" parent="1">
          <mxGeometry x="100.5" y="180" width="92.5" height="30" as="geometry" />
        </mxCell>
        <mxCell id="qrH3l1kH9dTRS8EX3X_p-190" value="工作流服务&lt;span data-darkreader-inline-color=&quot;&quot; style=&quot;color: rgba(0, 0, 0, 0); font-family: monospace; font-size: 0px; text-align: start; --darkreader-inline-color:rgba(209, 207, 204, 0);&quot;&gt;%3CmxGraphModel%3E%3Croot%3E%3CmxCell%20id%3D%220%22%2F%3E%3CmxCell%20id%3D%221%22%20parent%3D%220%22%2F%3E%3CmxCell%20id%3D%222%22%20value%3D%22%E5%90%88%E5%90%8C%E7%AE%A1%E7%90%86%E5%AD%90%E7%B3%BB%E7%BB%9F%22%20style%3D%22rounded%3D1%3BwhiteSpace%3Dwrap%3Bhtml%3D1%3B%22%20vertex%3D%221%22%20parent%3D%221%22%3E%3CmxGeometry%20x%3D%22110%22%20y%3D%22250%22%20width%3D%22120%22%20height%3D%2260%22%20as%3D%22geometry%22%2F%3E%3C%2FmxCell%3E%3C%2Froot%3E%3C%2FmxGraphModel%3&lt;/span&gt;" style="rounded=1;whiteSpace=wrap;html=1;" vertex="1" parent="1">
          <mxGeometry x="210.5" y="180" width="82" height="30" as="geometry" />
        </mxCell>
        <mxCell id="qrH3l1kH9dTRS8EX3X_p-191" value="客户管理服务" style="rounded=1;whiteSpace=wrap;html=1;" vertex="1" parent="1">
          <mxGeometry x="304" y="180" width="99.5" height="30" as="geometry" />
        </mxCell>
        <mxCell id="qrH3l1kH9dTRS8EX3X_p-192" value="服务、服务计划子系统" style="rounded=1;whiteSpace=wrap;html=1;" vertex="1" parent="1">
          <mxGeometry x="416" y="180" width="127" height="30" as="geometry" />
        </mxCell>
        <mxCell id="qrH3l1kH9dTRS8EX3X_p-193" value="暴露面管理服务" style="rounded=1;whiteSpace=wrap;html=1;fillColor=#FF9933;" vertex="1" parent="1">
          <mxGeometry x="100.5" y="220" width="92.5" height="30" as="geometry" />
        </mxCell>
        <mxCell id="qrH3l1kH9dTRS8EX3X_p-194" value="漏洞管理服务" style="rounded=1;whiteSpace=wrap;html=1;fillColor=#FF0000;" vertex="1" parent="1">
          <mxGeometry x="210.5" y="220" width="82.5" height="30" as="geometry" />
        </mxCell>
        <mxCell id="qrH3l1kH9dTRS8EX3X_p-195" value="设备托管服务" style="rounded=1;whiteSpace=wrap;html=1;" vertex="1" parent="1">
          <mxGeometry x="304" y="220" width="99" height="30" as="geometry" />
        </mxCell>
        <mxCell id="qrH3l1kH9dTRS8EX3X_p-196" value="报告报表服务" style="rounded=1;whiteSpace=wrap;html=1;" vertex="1" parent="1">
          <mxGeometry x="415.5" y="215" width="127.5" height="30" as="geometry" />
        </mxCell>
        <mxCell id="qrH3l1kH9dTRS8EX3X_p-197" value="公共服务" style="rounded=1;whiteSpace=wrap;html=1;" vertex="1" parent="1">
          <mxGeometry x="100.5" y="260" width="92.5" height="30" as="geometry" />
        </mxCell>
        <mxCell id="qrH3l1kH9dTRS8EX3X_p-199" value="告警服务" style="rounded=1;whiteSpace=wrap;html=1;fillColor=#FF0000;" vertex="1" parent="1">
          <mxGeometry x="210.5" y="260" width="79.5" height="30" as="geometry" />
        </mxCell>
        <mxCell id="qrH3l1kH9dTRS8EX3X_p-200" value="告警触发器" style="rounded=1;whiteSpace=wrap;html=1;fillColor=#FF0000;" vertex="1" parent="1">
          <mxGeometry x="304" y="260" width="99" height="30" as="geometry" />
        </mxCell>
        <mxCell id="qrH3l1kH9dTRS8EX3X_p-201" value="资产中心" style="rounded=1;whiteSpace=wrap;html=1;fillColor=#FF0000;" vertex="1" parent="1">
          <mxGeometry x="415.5" y="260" width="127.5" height="30" as="geometry" />
        </mxCell>
        <mxCell id="qrH3l1kH9dTRS8EX3X_p-203" value="" style="rounded=0;whiteSpace=wrap;html=1;" vertex="1" parent="1">
          <mxGeometry x="80.5" y="310" width="472.5" height="110" as="geometry" />
        </mxCell>
        <mxCell id="qrH3l1kH9dTRS8EX3X_p-204" value="账号服务" style="rounded=1;whiteSpace=wrap;html=1;fillColor=#FF8000;" vertex="1" parent="1">
          <mxGeometry x="100.5" y="340" width="82.5" height="30" as="geometry" />
        </mxCell>
        <mxCell id="qrH3l1kH9dTRS8EX3X_p-205" value="认证/授权" style="rounded=1;whiteSpace=wrap;html=1;" vertex="1" parent="1">
          <mxGeometry x="210.5" y="340" width="79.5" height="30" as="geometry" />
        </mxCell>
        <mxCell id="qrH3l1kH9dTRS8EX3X_p-207" value="订单中心" style="rounded=1;whiteSpace=wrap;html=1;" vertex="1" parent="1">
          <mxGeometry x="416" y="340" width="124" height="30" as="geometry" />
        </mxCell>
        <mxCell id="qrH3l1kH9dTRS8EX3X_p-209" value="产品中心" style="rounded=1;whiteSpace=wrap;html=1;" vertex="1" parent="1">
          <mxGeometry x="210.5" y="380" width="79.5" height="30" as="geometry" />
        </mxCell>
        <mxCell id="qrH3l1kH9dTRS8EX3X_p-216" value="日志/审计" style="rounded=1;whiteSpace=wrap;html=1;" vertex="1" parent="1">
          <mxGeometry x="417.75" y="380" width="122.25" height="30" as="geometry" />
        </mxCell>
        <mxCell id="qrH3l1kH9dTRS8EX3X_p-217" value="" style="rounded=0;whiteSpace=wrap;html=1;" vertex="1" parent="1">
          <mxGeometry x="78.25" y="430" width="477" height="70" as="geometry" />
        </mxCell>
        <mxCell id="qrH3l1kH9dTRS8EX3X_p-218" value="注册中心&lt;br&gt;nacos" style="rounded=1;whiteSpace=wrap;html=1;" vertex="1" parent="1">
          <mxGeometry x="590" y="160" width="70" height="30" as="geometry" />
        </mxCell>
        <mxCell id="qrH3l1kH9dTRS8EX3X_p-227" value="业务系统" style="text;html=1;strokeColor=none;fillColor=none;align=center;verticalAlign=middle;whiteSpace=wrap;rounded=0;" vertex="1" parent="1">
          <mxGeometry x="267.5" y="150" width="60" height="30" as="geometry" />
        </mxCell>
        <mxCell id="qrH3l1kH9dTRS8EX3X_p-228" value="业务中台" style="text;html=1;strokeColor=none;fillColor=none;align=center;verticalAlign=middle;whiteSpace=wrap;rounded=0;" vertex="1" parent="1">
          <mxGeometry x="270.5" y="310" width="60" height="30" as="geometry" />
        </mxCell>
        <mxCell id="qrH3l1kH9dTRS8EX3X_p-229" value="数据转发和存储" style="text;html=1;strokeColor=none;fillColor=none;align=center;verticalAlign=middle;whiteSpace=wrap;rounded=0;" vertex="1" parent="1">
          <mxGeometry x="267.5" y="430" width="95" height="30" as="geometry" />
        </mxCell>
        <mxCell id="qrH3l1kH9dTRS8EX3X_p-246" value="mysql" style="rounded=1;whiteSpace=wrap;html=1;" vertex="1" parent="1">
          <mxGeometry x="170" y="460" width="69.5" height="30" as="geometry" />
        </mxCell>
        <mxCell id="qrH3l1kH9dTRS8EX3X_p-247" value="ES" style="rounded=1;whiteSpace=wrap;html=1;" vertex="1" parent="1">
          <mxGeometry x="250" y="460" width="59.5" height="30" as="geometry" />
        </mxCell>
        <mxCell id="qrH3l1kH9dTRS8EX3X_p-248" value="TiDB" style="rounded=1;whiteSpace=wrap;html=1;" vertex="1" parent="1">
          <mxGeometry x="327.5" y="460" width="60" height="30" as="geometry" />
        </mxCell>
        <mxCell id="qrH3l1kH9dTRS8EX3X_p-249" value="MinIO" style="rounded=1;whiteSpace=wrap;html=1;" vertex="1" parent="1">
          <mxGeometry x="403" y="460" width="52" height="30" as="geometry" />
        </mxCell>
        <mxCell id="qrH3l1kH9dTRS8EX3X_p-250" value="Clicklhouse" style="rounded=1;whiteSpace=wrap;html=1;" vertex="1" parent="1">
          <mxGeometry x="470" y="460" width="70" height="30" as="geometry" />
        </mxCell>
        <mxCell id="qrH3l1kH9dTRS8EX3X_p-251" value="安全能力控制/接入" style="rounded=0;whiteSpace=wrap;html=1;" vertex="1" parent="1">
          <mxGeometry x="78.25" y="510" width="241.75" height="40" as="geometry" />
        </mxCell>
        <mxCell id="qrH3l1kH9dTRS8EX3X_p-252" value="数据接入" style="rounded=0;whiteSpace=wrap;html=1;" vertex="1" parent="1">
          <mxGeometry x="330" y="510" width="230" height="40" as="geometry" />
        </mxCell>
        <mxCell id="qrH3l1kH9dTRS8EX3X_p-253" value="" style="rounded=0;whiteSpace=wrap;html=1;" vertex="1" parent="1">
          <mxGeometry x="78.25" y="560" width="611.75" height="80" as="geometry" />
        </mxCell>
        <mxCell id="qrH3l1kH9dTRS8EX3X_p-254" value="漏洞扫描" style="rounded=1;whiteSpace=wrap;html=1;" vertex="1" parent="1">
          <mxGeometry x="98.25" y="590" width="70" height="30" as="geometry" />
        </mxCell>
        <mxCell id="qrH3l1kH9dTRS8EX3X_p-255" value="原子安全能力" style="text;html=1;strokeColor=none;fillColor=none;align=center;verticalAlign=middle;whiteSpace=wrap;rounded=0;" vertex="1" parent="1">
          <mxGeometry x="343.25" y="560" width="95" height="30" as="geometry" />
        </mxCell>
        <mxCell id="qrH3l1kH9dTRS8EX3X_p-256" value="互联网暴露面检测" style="rounded=1;whiteSpace=wrap;html=1;" vertex="1" parent="1">
          <mxGeometry x="198.25" y="590" width="70" height="30" as="geometry" />
        </mxCell>
        <mxCell id="qrH3l1kH9dTRS8EX3X_p-257" value="saasEDR" style="rounded=1;whiteSpace=wrap;html=1;" vertex="1" parent="1">
          <mxGeometry x="298.25" y="590" width="70" height="30" as="geometry" />
        </mxCell>
        <mxCell id="qrH3l1kH9dTRS8EX3X_p-258" value="玄武盾" style="rounded=1;whiteSpace=wrap;html=1;" vertex="1" parent="1">
          <mxGeometry x="401.25" y="590" width="70" height="30" as="geometry" />
        </mxCell>
        <mxCell id="qrH3l1kH9dTRS8EX3X_p-259" value="SIRP" style="rounded=1;whiteSpace=wrap;html=1;" vertex="1" parent="1">
          <mxGeometry x="498.25" y="590" width="70" height="30" as="geometry" />
        </mxCell>
        <mxCell id="qrH3l1kH9dTRS8EX3X_p-260" value="..." style="rounded=1;whiteSpace=wrap;html=1;" vertex="1" parent="1">
          <mxGeometry x="598.25" y="590" width="70" height="30" as="geometry" />
        </mxCell>
        <mxCell id="qrH3l1kH9dTRS8EX3X_p-263" value="配置中心&lt;br&gt;nacos" style="rounded=1;whiteSpace=wrap;html=1;" vertex="1" parent="1">
          <mxGeometry x="590" y="230" width="70" height="30" as="geometry" />
        </mxCell>
        <mxCell id="qrH3l1kH9dTRS8EX3X_p-264" value="系统监控&lt;br&gt;prometheus" style="rounded=1;whiteSpace=wrap;html=1;" vertex="1" parent="1">
          <mxGeometry x="590" y="290" width="70" height="30" as="geometry" />
        </mxCell>
        <mxCell id="qrH3l1kH9dTRS8EX3X_p-265" value="链路追踪&lt;br&gt;skywalking" style="rounded=1;whiteSpace=wrap;html=1;" vertex="1" parent="1">
          <mxGeometry x="590" y="360" width="70" height="30" as="geometry" />
        </mxCell>
        <mxCell id="qrH3l1kH9dTRS8EX3X_p-266" value="限流/熔断&lt;br&gt;sentinal" style="rounded=1;whiteSpace=wrap;html=1;" vertex="1" parent="1">
          <mxGeometry x="592.37" y="430" width="70" height="30" as="geometry" />
        </mxCell>
        <mxCell id="qrH3l1kH9dTRS8EX3X_p-267" value="缓存&lt;br&gt;redis" style="rounded=1;whiteSpace=wrap;html=1;" vertex="1" parent="1">
          <mxGeometry x="592.37" y="490" width="70" height="30" as="geometry" />
        </mxCell>
        <mxCell id="qrH3l1kH9dTRS8EX3X_p-269" value="消息网关服务" style="rounded=1;whiteSpace=wrap;html=1;fillColor=#FF0000;" vertex="1" parent="1">
          <mxGeometry x="100.5" y="380" width="82.5" height="30" as="geometry" />
        </mxCell>
        <mxCell id="qrH3l1kH9dTRS8EX3X_p-270" value="配额中心" style="rounded=1;whiteSpace=wrap;html=1;" vertex="1" parent="1">
          <mxGeometry x="304" y="340" width="96" height="30" as="geometry" />
        </mxCell>
        <mxCell id="qrH3l1kH9dTRS8EX3X_p-271" value="登录认证" style="rounded=1;whiteSpace=wrap;html=1;fillColor=#FF8000;" vertex="1" parent="1">
          <mxGeometry x="304" y="380" width="96" height="30" as="geometry" />
        </mxCell>
        <mxCell id="qrH3l1kH9dTRS8EX3X_p-273" value="公共基础组件" style="text;html=1;strokeColor=none;fillColor=none;align=center;verticalAlign=middle;whiteSpace=wrap;rounded=0;" vertex="1" parent="1">
          <mxGeometry x="585" y="105" width="80" height="30" as="geometry" />
        </mxCell>
        <mxCell id="qrH3l1kH9dTRS8EX3X_p-274" value="kafka" style="rounded=1;whiteSpace=wrap;html=1;" vertex="1" parent="1">
          <mxGeometry x="100.5" y="460" width="60" height="30" as="geometry" />
        </mxCell>
      </root>
    </mxGraphModel>
  </diagram>
</mxfile>
